<svg fill="none" height="37" viewBox="0 0 136 37" width="136" xmlns="http://www.w3.org/2000/svg"><g fill="#111213"><path d="m21.497 16.7979c-.0334-3.989 3.2712-5.9334 3.4251-6.0203-1.8731-2.72612-4.7764-3.1003-5.7999-3.12702-2.4417-.25388-4.8032 1.45666-6.0474 1.45666-1.2643 0-3.17762-1.42994-5.24466-1.38981-2.6558.04005-5.13764 1.5769-6.49561 3.95557-2.80965 4.8577-.715775 11.9937 1.98013 15.9226 1.34456 1.9244 2.91668 4.0692 4.97708 3.9957 2.01356-.0802 2.76946-1.2829 5.19776-1.2829 2.4083 0 3.1174 1.2829 5.2179 1.2361 2.1608-.0334 3.5255-1.931 4.8232-3.8687 1.5587-2.205 2.1809-4.3765 2.2076-4.4835-.0535-.0334-4.2011-1.6169-4.2412-6.3944zm-3.9669-11.73315c1.0837-1.35638 1.8262-3.19385 1.6188-5.06475-1.5653.0667817-3.5321 1.08241-4.656 2.40544-.9967 1.16929-1.8931 3.08024-1.6589 4.87766 1.7526.12693 3.5655-.8887 4.6961-2.21835z"/><path d="m50.6768 31.3036h-2.8162l-1.5453-4.8376h-5.3584l-1.4718 4.8376h-2.7427l5.3116-16.4772h3.2778zm-4.8231-6.8688-1.3982-4.303c-.1471-.4411-.4281-1.4767-.8295-3.1071h-.0468c-.1606.7016-.4281 1.7373-.7827 3.1071l-1.3713 4.303zm18.4569.7817c0 2.018-.5488 3.6149-1.6459 4.7909-.9838 1.0424-2.2077 1.5635-3.6661 1.5635-1.5788 0-2.709-.5613-3.3978-1.6838v6.2341h-2.6427v-12.7956c0-1.2695-.0332-2.5725-.1003-3.9021h2.3275l.1479 1.8843h.0461c.8836-1.4166 2.2215-2.1316 4.0138-2.1316 1.405 0 2.5756.5547 3.5125 1.6638.9362 1.1092 1.405 2.5725 1.405 4.3765zm-2.6895.1003c0-1.1559-.2611-2.1114-.7826-2.8598-.5691-.7818-1.3379-1.1693-2.3015-1.1693-.6484 0-1.2442.2205-1.7728.6481-.528.4343-.8764 1.0023-1.0365 1.6971-.0736.2607-.1139.5346-.1204.8019v1.9845c0 .8619.2675 1.5902.7962 2.1916.528.5947 1.2175.8953 2.0664.8953.9968 0 1.7729-.3875 2.3282-1.1492.5417-.7751.823-1.7841.823-3.0402zm16.3761-.1003c0 2.018-.5482 3.6149-1.646 4.7909-.983 1.0424-2.207 1.5635-3.6654 1.5635-1.5788 0-2.7097-.5613-3.3985-1.6838v6.2341h-2.6427v-12.7956c0-1.2695-.0332-2.5725-.1002-3.9021h2.3282l.1471 1.8843h.0469c.8828-1.4166 2.2207-2.1316 4.0138-2.1316 1.405 0 2.5756.5547 3.5117 1.6638.9305 1.1092 1.4051 2.5725 1.4051 4.3765zm-2.6961.1003c0-1.1559-.2604-2.1114-.7826-2.8598-.5683-.7818-1.3379-1.1693-2.3008-1.1693-.6491 0-1.2448.2205-1.78.6481-.528.4343-.8763 1.0023-1.0365 1.6971-.0807.3275-.1269.5947-.1269.8019v1.9845c0 .8619.2676 1.5902.7955 2.1916.5287.5947 1.2175.8953 2.0744.8953.996 0 1.7721-.3875 2.3275-1.1492.5553-.7751.8294-1.7841.8294-3.0402zm17.9953 1.3697c0 1.4032-.4883 2.5458-1.4649 3.4211-1.0703.9622-2.5756 1.4433-4.4956 1.4433-1.7728 0-3.1973-.3408-4.2748-1.0291l.6087-2.1982c1.1576.6882 2.435 1.0289 3.8198 1.0289.9967 0 1.7728-.2271 2.3282-.6748.5553-.4477.8359-1.049.8359-1.7974 0-.6681-.2337-1.2294-.6888-1.6905-.4551-.4543-1.211-.882-2.2741-1.2695-2.8901-1.0758-4.3354-2.6527-4.3354-4.7173 0-1.3497.5084-2.4589 1.5319-3.3208 1.017-.862 2.3686-1.2963 4.0542-1.2963 1.4987 0 2.7494.2606 3.7462.7818l-.6622 2.1515c-.9369-.5078-1.987-.755-3.1713-.755-.9297 0-1.6654.2271-2.1876.6815-.4414.4076-.6621.9021-.6621 1.4901 0 .648.2546 1.1893.7631 1.6102.4414.3876 1.237.8152 2.3946 1.2696 1.4179.5746 2.4616 1.2361 3.1309 2.0045.6686.7684 1.0033 1.7239 1.0033 2.8664zm8.7636-5.2785h-2.9171v5.7663c0 1.47.515 2.1983 1.5461 2.1983.474 0 .862-.0401 1.177-.1203l.073 2.0046c-.521.1938-1.204.294-2.0532.294-1.0437 0-1.8602-.3208-2.4487-.9555-.5885-.6348-.8828-1.7039-.8828-3.2006v-5.9868h-1.7325v-1.9778h1.7325v-2.1783l2.5958-.7817v2.96h2.9159zm13.118 3.862c0 1.8241-.522 3.3276-1.565 4.4969-1.091 1.2093-2.542 1.8107-4.355 1.8107-1.746 0-3.138-.5813-4.175-1.7306-1.036-1.1559-1.551-2.6192-1.551-4.3765 0-1.8442.535-3.3476 1.605-4.5236 1.071-1.176 2.509-1.7573 4.321-1.7573 1.746 0 3.151.5813 4.208 1.7373 1.003 1.1158 1.512 2.5658 1.512 4.3431zm-2.742.0602c0-1.0892-.235-2.0246-.71-2.7997-.555-.9421-1.345-1.4165-2.374-1.4165-1.058 0-1.874.4744-2.422 1.4165-.475.7817-.709 1.7306-.709 2.8531 0 1.0891.234 2.0246.709 2.8064.569.942 1.371 1.4165 2.401 1.4165 1.011 0 1.8-.4811 2.375-1.4366.489-.8085.73-1.7506.73-2.8397zm11.338-3.5815c-.274-.0467-.555-.0735-.836-.0735-.93 0-1.645.3475-2.154 1.0491-.441.6214-.662 1.4031-.662 2.3453v6.234h-2.643v-8.1383c0-1.2495-.02-2.4924-.073-3.7418h2.301l.093 2.2718h.074c.281-.7818.716-1.4099 1.325-1.8843.548-.4143 1.224-.6348 1.913-.6348.248 0 .461.0201.662.0469zm11.821 3.0536c.007.4009-.027.8018-.094 1.196h-7.934c.027 1.176.415 2.0713 1.151 2.6928.668.5545 1.532.8285 2.596.8285 1.177 0 2.247-.1871 3.211-.5613l.414 1.8308c-1.124.4878-2.455.735-3.987.735-1.846 0-3.291-.5412-4.348-1.6236-1.05-1.0825-1.579-2.5391-1.579-4.3632 0-1.7907.488-3.2808 1.472-4.4701 1.024-1.2696 2.415-1.9043 4.161-1.9043 1.712 0 3.01.6347 3.893 1.9043.689 1.009 1.044 2.2517 1.044 3.7351zm-2.522-.6816c.02-.7817-.154-1.4566-.515-2.0312-.455-.735-1.164-1.1025-2.108-1.1025-.862 0-1.565.3608-2.107 1.0758-.442.5679-.702 1.2561-.783 2.0513z"/><path d="m40.1942 9.00295c-.7358 0-1.3713-.03342-1.8998-.09358v-7.971299c.7426-.113608 1.4918-.173763 2.2411-.167063 3.0303 0 4.4285 1.490022 4.4285 3.915482-.0068 2.79965-1.6524 4.31646-4.7698 4.31646zm.4482-7.20961c-.408 0-.7559.02672-1.0435.08681v6.05372c.1538.02672.4549.03335.8763.03335 1.9868 0 3.1174-1.12916 3.1174-3.2406-.0067-1.89093-1.0302-2.93328-2.9502-2.93328zm8.6698 7.26969c-1.7059 0-2.8164-1.2762-2.8164-3.00676 0-1.80411 1.1306-3.08694 2.9101-3.08694 1.6857 0 2.8165 1.21605 2.8165 2.99336 0 1.82414-1.1642 3.10034-2.9102 3.10034zm.0468-5.14492c-.9366 0-1.5386.87529-1.5386 2.10473 0 1.20272.6154 2.07802 1.5252 2.07802.9165 0 1.5253-.93545 1.5253-2.10474.0066-1.18932-.5954-2.07801-1.5119-2.07801zm12.6032-.82854-1.8262 5.83983h-1.1908l-.7559-2.53237c-.1875-.62143-.3476-1.24948-.4681-1.88423h-.0267c-.0938.63475-.2748 1.2762-.4688 1.88423l-.8028 2.53237h-1.2037l-1.7195-5.83983h1.3379l.6621 2.77291c.1544.66148.2878 1.2829.3953 1.8776h.0267c.0937-.49449.2539-1.10251.4818-1.8642l.8294-2.78631h1.0567l.7962 2.72616c.194.66148.3477 1.30963.4681 1.92435h.0332c.0873-.6014.2142-1.23615.3952-1.92435l.709-2.72616zm6.7365 5.83983h-1.2975v-3.35422c0-1.03565-.3953-1.55017-1.1779-1.55017-.7688 0-1.2975.66148-1.2975 1.42987v3.47452h-1.2975v-4.16943c0-.51444-.0137-1.06901-.0469-1.6704h1.1439l.0599.90202h.0331c.3484-.62135 1.0574-1.02226 1.8537-1.02226 1.2239 0 2.0332.93545 2.0332 2.46552zm3.5788 0h-1.2975v-8.519244h1.2975zm4.743.13363c-1.7057 0-2.8165-1.2762-2.8165-3.00676 0-1.80411 1.1309-3.08694 2.9103-3.08694 1.6856 0 2.8165 1.21605 2.8165 2.99336 0 1.82414-1.1706 3.10034-2.9103 3.10034zm.0469-5.14492c-.9369 0-1.5384.87529-1.5384 2.10473 0 1.20272.6152 2.07802 1.5247 2.07802.9167 0 1.5254-.93545 1.5254-2.10474 0-1.18932-.595-2.07801-1.5117-2.07801zm7.9872 5.01129-.0938-.67488h-.0332c-.3945.54124-.9766.80181-1.7122.80181-1.0509 0-1.7931-.73496-1.7931-1.71716 0-1.44326 1.2507-2.18492 3.418-2.18492v-.10691c0-.76846-.4075-1.15596-1.2102-1.15596-.5756 0-1.0841.14703-1.5255.43433l-.2611-.85527c.5424-.33412 1.2175-.50781 2.0073-.50781 1.5247 0 2.3008.80181 2.3008 2.41206v2.15157c0 .588.0267 1.04899.0873 1.39644zm-.1804-2.90656c-1.4453 0-2.1673.34746-2.1673 1.176 0 .61472.3743.91542.8893.91542.6628 0 1.278-.50119 1.278-1.18939zm7.5725 2.90656-.0599-.93545h-.0339c-.3743.7083-1.0032 1.06908-1.8796 1.06908-1.4115 0-2.4551-1.23607-2.4551-2.98003 0-1.82414 1.084-3.11367 2.5619-3.11367.7833 0 1.3379.26057 1.6459.79511h.0267v-3.354284h1.2975v6.942344c0 .56127.0137 1.09581.0469 1.5702h-1.1504zm-.1875-3.4344c0-.81521-.5417-1.51674-1.3711-1.51674-.9636 0-1.5522.85527-1.5522 2.05128 0 1.176.6088 1.98451 1.5255 1.98451.8157 0 1.3978-.7083 1.3978-1.55017zm9.5468 3.56803c-1.706 0-2.8168-1.2762-2.8168-3.00676 0-1.80411 1.1298-3.08694 2.9098-3.08694 1.686 0 2.816 1.21605 2.816 2.99336 0 1.82414-1.163 3.10034-2.909 3.10034zm.047-5.14492c-.937 0-1.54.87529-1.54 2.10473 0 1.20272.616 2.07802 1.526 2.07802.917 0 1.525-.93545 1.525-2.10474.007-1.18932-.595-2.07801-1.511-2.07801zm9.853 5.01129h-1.298v-3.35422c0-1.03565-.394-1.55017-1.177-1.55017-.77 0-1.298.66148-1.298 1.42987v3.47452h-1.298v-4.16943c0-.51444-.013-1.06901-.047-1.6704h1.144l.061.90202h.033c.348-.62135 1.057-1.02226 1.853-1.02226 1.225 0 2.034.93545 2.034 2.46552v3.49455zm8.737-4.86433h-1.432v2.83307c0 .72163.248 1.08248.756 1.08248.227 0 .421-.02672.576-.06015l.033.9822c-.254.09358-.589.14704-1.01.14704-1.024 0-1.639-.56127-1.639-2.04466v-2.94661h-.856v-.97557h.856v-1.06909l1.278-.38751v1.4566h1.431zm6.884 4.86433h-1.299v-3.32749c0-1.04235-.394-1.5702-1.177-1.5702-.676 0-1.297.45436-1.297 1.38311v3.52128h-1.299v-8.525944h1.299v3.507954h.026c.409-.63475 1.004-.94878 1.759-.94878 1.238 0 1.994.9621 1.994 2.48555zm7.043-2.60586h-3.9c.027 1.10251.756 1.73056 1.84 1.73056.575 0 1.11-.09351 1.578-.27397l.202.90202c-.556.24055-1.205.36086-1.961.36086-1.826 0-2.909-1.15597-2.909-2.93998 0-1.79072 1.11-3.1337 2.762-3.1337 1.492 0 2.429 1.10244 2.429 2.77292.013.18709 0 .3875-.041.58129zm-1.19-.92875c0-.90209-.455-1.53684-1.284-1.53684-.75 0-1.338.64815-1.419 1.53684z"/></g></svg>