<svg width="1310" height="867" viewBox="0 0 1310 867" fill="none" xmlns="http://www.w3.org/2000/svg">
<g clip-path="url(#clip0_537_479)">
<rect width="1310" height="867" fill="#ECECEC"/>
<g filter="url(#filter0_f_537_479)">
<path d="M712.446 1368.26C878.588 1381.55 1062.78 1359.53 1161.38 1233.44C1255.08 1113.59 1184.65 937.845 1172.47 779.941C1161.12 632.927 1190.11 476.279 1093.85 358.37C990.171 231.38 824.211 148.108 667.93 161.952C522.136 174.867 454.482 325.526 352.024 424.084C246.078 525.997 80.7984 588.354 67.8659 739.177C54.2223 898.291 169.122 1046.99 288.612 1163.61C406.333 1278.5 553.701 1355.56 712.446 1368.26Z" fill="url(#paint0_linear_537_479)"/>
</g>
<g filter="url(#filter1_d_537_479)">
<g filter="url(#filter2_i_537_479)">
<g filter="url(#filter3_i_537_479)">
<rect x="-264.184" y="242.609" width="674.594" height="1385.43" rx="96.6582" fill="#F5F5F5" fill-opacity="0.8"/>
</g>
<g opacity="0.5" filter="url(#filter4_i_537_479)">
<rect x="-264.184" y="242.609" width="674.594" height="1385.43" rx="96.6582" fill="#F5F5F5" fill-opacity="0.8"/>
</g>
<path d="M15.7373 254.691H130.519V260.733C130.519 264.069 127.814 266.774 124.478 266.774H21.7784C18.442 266.774 15.7373 264.069 15.7373 260.733V254.691Z" fill="#DFDFDF"/>
</g>
<mask id="mask0_537_479" style="mask-type:alpha" maskUnits="userSpaceOnUse" x="-232" y="274" width="611" height="1322">
<path fill-rule="evenodd" clip-rule="evenodd" d="M-163.626 274.836C-201.367 274.836 -231.963 305.427 -231.963 343.163V1527.5C-231.963 1565.24 -201.367 1595.83 -163.626 1595.83H309.855C347.596 1595.83 378.192 1565.24 378.192 1527.5V343.163C378.192 305.427 347.596 274.836 309.855 274.836H207.212C200.84 274.836 199.213 278.897 199.213 285.178C199.213 305.073 194.332 324.455 164.812 324.455H-18.5829C-48.1027 324.455 -52.984 305.073 -52.984 285.178C-52.984 278.897 -54.611 274.836 -60.9829 274.836H-163.626Z" fill="white"/>
</mask>
<g mask="url(#mask0_537_479)">
<rect x="-231.965" y="274.84" width="610.155" height="1321" rx="8.05485" fill="white"/>
<path fill-rule="evenodd" clip-rule="evenodd" d="M89.5537 759.883C89.5537 754.474 93.9381 750.09 99.3466 750.09H303.689C309.098 750.09 313.482 754.474 313.482 759.883V865.891C313.482 871.299 309.098 875.684 303.689 875.684H99.3466C93.9381 875.684 89.5537 871.299 89.5537 865.891V759.883Z" fill="#111213" fill-opacity="0.1"/>
<path fill-rule="evenodd" clip-rule="evenodd" d="M-166.346 759.883C-166.346 754.474 -161.961 750.09 -156.553 750.09H47.7897C53.1982 750.09 57.5826 754.474 57.5826 759.883V865.891C57.5826 871.299 53.1982 875.684 47.7897 875.684H-156.553C-161.961 875.684 -166.346 871.299 -166.346 865.891V759.883Z" fill="#111213" fill-opacity="0.1"/>
<path fill-rule="evenodd" clip-rule="evenodd" d="M-65.9082 671.728C-65.9082 663.616 -59.3316 657.039 -51.2189 657.039H198.5C206.612 657.039 213.189 663.616 213.189 671.728V698.169C213.189 706.282 206.612 712.858 198.5 712.858H-51.2189C-59.3316 712.858 -65.9082 706.282 -65.9082 698.169V671.728Z" fill="url(#paint1_linear_537_479)"/>
<path fill-rule="evenodd" clip-rule="evenodd" d="M27.124 680.297H120.156V689.6H27.124V680.297Z" fill="white"/>
<path fill-rule="evenodd" clip-rule="evenodd" d="M-10.1143 610.531H157.344V619.834H-10.1143V610.531Z" fill="#111213" fill-opacity="0.1"/>
<path fill-rule="evenodd" clip-rule="evenodd" d="M-65.9639 591.93H213.133V601.233H-65.9639V591.93Z" fill="#111213" fill-opacity="0.1"/>
<path fill-rule="evenodd" clip-rule="evenodd" d="M8.47461 536.105H138.72V564.015H8.47461V536.105Z" fill="#111213" fill-opacity="0.1"/>
</g>
</g>
<g filter="url(#filter5_d_537_479)">
<g filter="url(#filter6_i_537_479)">
<g filter="url(#filter7_i_537_479)">
<rect x="529.974" y="-732.82" width="674.594" height="1385.43" rx="96.6582" fill="#F5F5F5" fill-opacity="0.8"/>
</g>
<g opacity="0.5" filter="url(#filter8_i_537_479)">
<rect x="529.974" y="-732.82" width="674.594" height="1385.43" rx="96.6582" fill="#F5F5F5" fill-opacity="0.8"/>
</g>
</g>
<mask id="mask1_537_479" style="mask-type:alpha" maskUnits="userSpaceOnUse" x="562" y="-701" width="611" height="1322">
<path fill-rule="evenodd" clip-rule="evenodd" d="M630.531 -700.594C592.789 -700.594 562.193 -670.003 562.193 -632.266V552.074C562.193 589.81 592.789 620.401 630.531 620.401H1104.01C1141.75 620.401 1172.35 589.81 1172.35 552.074V-632.266C1172.35 -670.003 1141.75 -700.594 1104.01 -700.594H1001.37C994.997 -700.594 993.37 -696.532 993.37 -690.252C993.37 -670.357 988.488 -650.975 958.969 -650.975H775.573C746.054 -650.975 741.172 -670.357 741.172 -690.252C741.172 -696.532 739.545 -700.594 733.173 -700.594H630.531Z" fill="white"/>
</mask>
<g mask="url(#mask1_537_479)">
<rect x="562.191" y="-700.59" width="610.155" height="1321" rx="8.05485" fill="white"/>
<path fill-rule="evenodd" clip-rule="evenodd" d="M906.728 322.531C906.728 317.123 911.112 312.738 916.52 312.738H1120.86C1126.27 312.738 1130.66 317.123 1130.66 322.531V428.539C1130.66 433.948 1126.27 438.332 1120.86 438.332H916.52C911.112 438.332 906.728 433.948 906.728 428.539V322.531Z" fill="#111213" fill-opacity="0.1"/>
<path fill-rule="evenodd" clip-rule="evenodd" d="M650.827 322.531C650.827 317.123 655.212 312.738 660.62 312.738H864.963C870.371 312.738 874.755 317.123 874.755 322.531V428.539C874.755 433.948 870.371 438.332 864.963 438.332H660.62C655.212 438.332 650.827 433.948 650.827 428.539V322.531Z" fill="#111213" fill-opacity="0.1"/>
<path fill-rule="evenodd" clip-rule="evenodd" d="M751.265 234.377C751.265 226.264 757.841 219.688 765.954 219.688H1015.67C1023.79 219.688 1030.36 226.264 1030.36 234.377V260.818C1030.36 268.93 1023.79 275.507 1015.67 275.507H765.954C757.841 275.507 751.265 268.93 751.265 260.818V234.377Z" fill="url(#paint2_linear_537_479)"/>
<path fill-rule="evenodd" clip-rule="evenodd" d="M844.297 242.945H937.329V252.249H844.297V242.945Z" fill="white"/>
<path fill-rule="evenodd" clip-rule="evenodd" d="M807.059 173.184H974.517V182.487H807.059V173.184Z" fill="#111213" fill-opacity="0.1"/>
<path fill-rule="evenodd" clip-rule="evenodd" d="M751.209 154.582H1030.31V163.885H751.209V154.582Z" fill="#111213" fill-opacity="0.1"/>
<path fill-rule="evenodd" clip-rule="evenodd" d="M825.647 98.7539H955.893V126.664H825.647V98.7539Z" fill="#111213" fill-opacity="0.1"/>
</g>
</g>
</g>
<defs>
<filter id="filter0_f_537_479" x="-326.239" y="-232.547" width="1928.55" height="1997.2" filterUnits="userSpaceOnUse" color-interpolation-filters="sRGB">
<feFlood flood-opacity="0" result="BackgroundImageFix"/>
<feBlend mode="normal" in="SourceGraphic" in2="BackgroundImageFix" result="shape"/>
<feGaussianBlur stdDeviation="196.5" result="effect1_foregroundBlur_537_479"/>
</filter>
<filter id="filter1_d_537_479" x="-495.76" y="111.718" width="1137.75" height="1848.59" filterUnits="userSpaceOnUse" color-interpolation-filters="sRGB">
<feFlood flood-opacity="0" result="BackgroundImageFix"/>
<feColorMatrix in="SourceAlpha" type="matrix" values="0 0 0 0 0 0 0 0 0 0 0 0 0 0 0 0 0 0 127 0" result="hardAlpha"/>
<feOffset dy="100.686"/>
<feGaussianBlur stdDeviation="115.788"/>
<feColorMatrix type="matrix" values="0 0 0 0 0 0 0 0 0 0 0 0 0 0 0 0 0 0 0.15 0"/>
<feBlend mode="normal" in2="BackgroundImageFix" result="effect1_dropShadow_537_479"/>
<feBlend mode="normal" in="SourceGraphic" in2="effect1_dropShadow_537_479" result="shape"/>
</filter>
<filter id="filter2_i_537_479" x="-264.184" y="242.609" width="674.594" height="1385.43" filterUnits="userSpaceOnUse" color-interpolation-filters="sRGB">
<feFlood flood-opacity="0" result="BackgroundImageFix"/>
<feBlend mode="normal" in="SourceGraphic" in2="BackgroundImageFix" result="shape"/>
<feColorMatrix in="SourceAlpha" type="matrix" values="0 0 0 0 0 0 0 0 0 0 0 0 0 0 0 0 0 0 127 0" result="hardAlpha"/>
<feOffset/>
<feGaussianBlur stdDeviation="8.05485"/>
<feComposite in2="hardAlpha" operator="arithmetic" k2="-1" k3="1"/>
<feColorMatrix type="matrix" values="0 0 0 0 1 0 0 0 0 1 0 0 0 0 1 0 0 0 1 0"/>
<feBlend mode="normal" in2="shape" result="effect1_innerShadow_537_479"/>
</filter>
<filter id="filter3_i_537_479" x="-264.184" y="242.609" width="674.594" height="1387.45" filterUnits="userSpaceOnUse" color-interpolation-filters="sRGB">
<feFlood flood-opacity="0" result="BackgroundImageFix"/>
<feBlend mode="normal" in="SourceGraphic" in2="BackgroundImageFix" result="shape"/>
<feColorMatrix in="SourceAlpha" type="matrix" values="0 0 0 0 0 0 0 0 0 0 0 0 0 0 0 0 0 0 127 0" result="hardAlpha"/>
<feOffset dy="2.01371"/>
<feGaussianBlur stdDeviation="3.02057"/>
<feComposite in2="hardAlpha" operator="arithmetic" k2="-1" k3="1"/>
<feColorMatrix type="matrix" values="0 0 0 0 1 0 0 0 0 1 0 0 0 0 1 0 0 0 0.5 0"/>
<feBlend mode="normal" in2="shape" result="effect1_innerShadow_537_479"/>
</filter>
<filter id="filter4_i_537_479" x="-264.184" y="242.609" width="674.594" height="1387.45" filterUnits="userSpaceOnUse" color-interpolation-filters="sRGB">
<feFlood flood-opacity="0" result="BackgroundImageFix"/>
<feBlend mode="normal" in="SourceGraphic" in2="BackgroundImageFix" result="shape"/>
<feColorMatrix in="SourceAlpha" type="matrix" values="0 0 0 0 0 0 0 0 0 0 0 0 0 0 0 0 0 0 127 0" result="hardAlpha"/>
<feOffset dy="2.01371"/>
<feGaussianBlur stdDeviation="3.02057"/>
<feComposite in2="hardAlpha" operator="arithmetic" k2="-1" k3="1"/>
<feColorMatrix type="matrix" values="0 0 0 0 1 0 0 0 0 1 0 0 0 0 1 0 0 0 0.5 0"/>
<feBlend mode="normal" in2="shape" result="effect1_innerShadow_537_479"/>
</filter>
<filter id="filter5_d_537_479" x="298.397" y="-863.712" width="1137.75" height="1848.59" filterUnits="userSpaceOnUse" color-interpolation-filters="sRGB">
<feFlood flood-opacity="0" result="BackgroundImageFix"/>
<feColorMatrix in="SourceAlpha" type="matrix" values="0 0 0 0 0 0 0 0 0 0 0 0 0 0 0 0 0 0 127 0" result="hardAlpha"/>
<feOffset dy="100.686"/>
<feGaussianBlur stdDeviation="115.788"/>
<feColorMatrix type="matrix" values="0 0 0 0 0 0 0 0 0 0 0 0 0 0 0 0 0 0 0.15 0"/>
<feBlend mode="normal" in2="BackgroundImageFix" result="effect1_dropShadow_537_479"/>
<feBlend mode="normal" in="SourceGraphic" in2="effect1_dropShadow_537_479" result="shape"/>
</filter>
<filter id="filter6_i_537_479" x="529.974" y="-732.82" width="674.594" height="1385.43" filterUnits="userSpaceOnUse" color-interpolation-filters="sRGB">
<feFlood flood-opacity="0" result="BackgroundImageFix"/>
<feBlend mode="normal" in="SourceGraphic" in2="BackgroundImageFix" result="shape"/>
<feColorMatrix in="SourceAlpha" type="matrix" values="0 0 0 0 0 0 0 0 0 0 0 0 0 0 0 0 0 0 127 0" result="hardAlpha"/>
<feOffset/>
<feGaussianBlur stdDeviation="8.05485"/>
<feComposite in2="hardAlpha" operator="arithmetic" k2="-1" k3="1"/>
<feColorMatrix type="matrix" values="0 0 0 0 1 0 0 0 0 1 0 0 0 0 1 0 0 0 1 0"/>
<feBlend mode="normal" in2="shape" result="effect1_innerShadow_537_479"/>
</filter>
<filter id="filter7_i_537_479" x="529.974" y="-732.82" width="674.594" height="1387.45" filterUnits="userSpaceOnUse" color-interpolation-filters="sRGB">
<feFlood flood-opacity="0" result="BackgroundImageFix"/>
<feBlend mode="normal" in="SourceGraphic" in2="BackgroundImageFix" result="shape"/>
<feColorMatrix in="SourceAlpha" type="matrix" values="0 0 0 0 0 0 0 0 0 0 0 0 0 0 0 0 0 0 127 0" result="hardAlpha"/>
<feOffset dy="2.01371"/>
<feGaussianBlur stdDeviation="3.02057"/>
<feComposite in2="hardAlpha" operator="arithmetic" k2="-1" k3="1"/>
<feColorMatrix type="matrix" values="0 0 0 0 1 0 0 0 0 1 0 0 0 0 1 0 0 0 0.5 0"/>
<feBlend mode="normal" in2="shape" result="effect1_innerShadow_537_479"/>
</filter>
<filter id="filter8_i_537_479" x="529.974" y="-732.82" width="674.594" height="1387.45" filterUnits="userSpaceOnUse" color-interpolation-filters="sRGB">
<feFlood flood-opacity="0" result="BackgroundImageFix"/>
<feBlend mode="normal" in="SourceGraphic" in2="BackgroundImageFix" result="shape"/>
<feColorMatrix in="SourceAlpha" type="matrix" values="0 0 0 0 0 0 0 0 0 0 0 0 0 0 0 0 0 0 127 0" result="hardAlpha"/>
<feOffset dy="2.01371"/>
<feGaussianBlur stdDeviation="3.02057"/>
<feComposite in2="hardAlpha" operator="arithmetic" k2="-1" k3="1"/>
<feColorMatrix type="matrix" values="0 0 0 0 1 0 0 0 0 1 0 0 0 0 1 0 0 0 0.5 0"/>
<feBlend mode="normal" in2="shape" result="effect1_innerShadow_537_479"/>
</filter>
<linearGradient id="paint0_linear_537_479" x1="1312.17" y1="960.552" x2="194.963" y2="782.071" gradientUnits="userSpaceOnUse">
<stop stop-color="#F6D365"/>
<stop offset="1" stop-color="#FF7952"/>
</linearGradient>
<linearGradient id="paint1_linear_537_479" x1="1.11801" y1="661.241" x2="10.2723" y2="726.294" gradientUnits="userSpaceOnUse">
<stop stop-color="#F6D365"/>
<stop offset="1" stop-color="#FF7952"/>
</linearGradient>
<linearGradient id="paint2_linear_537_479" x1="818.291" y1="223.89" x2="827.445" y2="288.942" gradientUnits="userSpaceOnUse">
<stop stop-color="#F6D365"/>
<stop offset="1" stop-color="#FF7952"/>
</linearGradient>
<clipPath id="clip0_537_479">
<rect width="1310" height="867" fill="white"/>
</clipPath>
</defs>
</svg>
