<svg width="1310" height="867" viewBox="0 0 1310 867" fill="none" xmlns="http://www.w3.org/2000/svg">
<g clip-path="url(#clip0_537_411)">
<rect width="1310" height="867" fill="#ECECEC"/>
<g filter="url(#filter0_f_537_411)">
<path d="M952.613 994.909C1118.76 1008.2 1302.95 986.18 1401.54 860.085C1495.25 740.242 1424.82 564.494 1412.63 406.589C1401.29 259.575 1430.28 102.928 1334.01 -14.9813C1230.34 -141.971 1064.38 -225.243 908.097 -211.399C762.303 -198.484 694.649 -47.8257 592.191 50.7327C486.245 152.646 320.965 215.003 308.033 365.826C294.389 524.94 409.289 673.636 528.779 790.254C646.5 905.144 793.868 982.207 952.613 994.909Z" fill="url(#paint0_linear_537_411)"/>
</g>
<g filter="url(#filter1_d_537_411)">
<g filter="url(#filter2_i_537_411)">
<g filter="url(#filter3_i_537_411)">
<rect x="224.883" y="-603.912" width="674.594" height="1385.43" rx="96.6582" transform="rotate(-16.606 224.883 -603.912)" fill="#F5F5F5" fill-opacity="0.8"/>
</g>
<g opacity="0.5" filter="url(#filter4_i_537_411)">
<rect x="224.883" y="-603.912" width="674.594" height="1385.43" rx="96.6582" transform="rotate(-16.606 224.883 -603.912)" fill="#F5F5F5" fill-opacity="0.8"/>
</g>
</g>
<mask id="mask0_537_411" style="mask-type:alpha" maskUnits="userSpaceOnUse" x="281" y="-740" width="930" height="1408">
<path fill-rule="evenodd" clip-rule="evenodd" d="M330.455 -601.762C294.287 -590.976 273.71 -552.917 284.495 -516.755L622.965 618.19C633.75 654.352 671.812 674.924 707.98 664.138L1161.71 528.823C1197.88 518.037 1218.46 479.977 1207.67 443.815L869.202 -691.13C858.417 -727.292 820.355 -747.864 784.188 -737.077L685.826 -707.743C679.72 -705.922 679.322 -701.565 681.117 -695.547C686.802 -676.481 687.664 -656.513 659.375 -648.077L483.629 -595.665C455.34 -587.228 445.123 -604.406 439.438 -623.472C437.643 -629.49 434.923 -632.917 428.817 -631.096L330.455 -601.762Z" fill="white"/>
</mask>
<g mask="url(#mask0_537_411)">
<rect x="264.966" y="-582.225" width="610.155" height="1321" rx="8.05485" transform="rotate(-16.606 264.966 -582.225)" fill="white"/>
<path fill-rule="evenodd" clip-rule="evenodd" d="M715.492 461.893C713.424 454.96 717.369 447.664 724.302 445.596L1027.68 355.12C1034.61 353.053 1041.91 356.997 1043.98 363.93L1056.08 404.52C1058.15 411.453 1054.21 418.75 1047.27 420.818L743.894 511.293C736.961 513.361 729.665 509.417 727.597 502.484L715.492 461.893Z" fill="url(#paint1_linear_537_411)"/>
<path fill-rule="evenodd" clip-rule="evenodd" d="M829.407 444.062L938.903 411.408L942.168 422.358L832.673 455.012L829.407 444.062Z" fill="white"/>
<path fill-rule="evenodd" clip-rule="evenodd" d="M750.363 258.977L903.657 213.26L906.923 224.21L753.629 269.926L750.363 258.977Z" fill="#111213" fill-opacity="0.1"/>
<path fill-rule="evenodd" clip-rule="evenodd" d="M656.235 263.195L984.722 165.232L987.988 176.181L659.501 274.145L656.235 263.195Z" fill="#111213" fill-opacity="0.1"/>
<path fill-rule="evenodd" clip-rule="evenodd" d="M649.704 241.305L978.191 143.341L981.456 154.291L652.97 252.254L649.704 241.305Z" fill="#111213" fill-opacity="0.1"/>
<path fill-rule="evenodd" clip-rule="evenodd" d="M643.174 219.402L971.661 121.439L974.926 132.388L646.439 230.352L643.174 219.402Z" fill="#111213" fill-opacity="0.1"/>
<path fill-rule="evenodd" clip-rule="evenodd" d="M711.177 127.582L864.471 81.8658L874.267 114.714L720.973 160.431L711.177 127.582Z" fill="#111213" fill-opacity="0.1"/>
<path fill-rule="evenodd" clip-rule="evenodd" d="M778.026 71.8693C820.357 59.2451 844.439 14.6952 831.815 -27.6357C819.191 -69.9667 774.641 -94.0487 732.31 -81.4245C689.979 -68.8003 665.897 -24.2504 678.521 18.0805C691.145 60.4114 735.695 84.4935 778.026 71.8693Z" fill="#111213" fill-opacity="0.1"/>
</g>
</g>
<g filter="url(#filter5_d_537_411)">
<g filter="url(#filter6_i_537_411)">
<g filter="url(#filter7_i_537_411)">
<rect x="-314.4" y="422.293" width="674.594" height="1385.43" rx="96.6582" transform="rotate(-16.61 -314.4 422.293)" fill="#F5F5F5" fill-opacity="0.8"/>
</g>
<g opacity="0.5" filter="url(#filter8_i_537_411)">
<rect x="-314.4" y="422.293" width="674.594" height="1385.43" rx="96.6582" transform="rotate(-16.61 -314.4 422.293)" fill="#F5F5F5" fill-opacity="0.8"/>
</g>
<path d="M-42.708 353.852L67.2841 321.041L69.011 326.83C69.9647 330.027 68.146 333.392 64.9488 334.346L-33.4652 363.703C-36.6624 364.657 -40.0274 362.838 -40.9811 359.641L-42.708 353.852Z" fill="#DFDFDF"/>
</g>
<mask id="mask1_537_411" style="mask-type:alpha" maskUnits="userSpaceOnUse" x="-258" y="286" width="930" height="1408">
<path fill-rule="evenodd" clip-rule="evenodd" d="M-208.826 424.434C-244.993 435.223 -265.567 473.283 -254.78 509.445L83.7706 1644.37C94.5577 1680.53 132.621 1701.1 168.788 1690.31L622.511 1554.96C658.678 1544.17 679.252 1506.11 668.465 1469.95L329.915 335.029C319.128 298.867 281.064 278.299 244.897 289.087L146.538 318.428C140.432 320.249 140.034 324.607 141.829 330.625C147.516 349.69 148.379 369.658 120.091 378.097L-55.6515 430.521C-83.9396 438.959 -94.1574 421.782 -99.8445 402.717C-101.64 396.699 -104.36 393.272 -110.466 395.093L-208.826 424.434Z" fill="white"/>
</mask>
<g mask="url(#mask1_537_411)">
<rect x="-274.313" y="443.977" width="610.155" height="1321" rx="8.05485" transform="rotate(-16.61 -274.313 443.977)" fill="white"/>
<path fill-rule="evenodd" clip-rule="evenodd" d="M93.623 885.555L246.914 839.828L250.18 850.777L96.8893 896.504L93.623 885.555Z" fill="#111213" fill-opacity="0.1"/>
<path fill-rule="evenodd" clip-rule="evenodd" d="M-0.50293 889.785L327.977 791.799L331.243 802.748L2.76329 900.734L-0.50293 889.785Z" fill="#111213" fill-opacity="0.1"/>
<path fill-rule="evenodd" clip-rule="evenodd" d="M-7.03613 867.895L321.444 769.908L324.71 780.857L-3.76991 878.844L-7.03613 867.895Z" fill="#111213" fill-opacity="0.1"/>
<path fill-rule="evenodd" clip-rule="evenodd" d="M-13.5693 845.992L314.911 748.006L318.177 758.955L-10.3031 856.942L-13.5693 845.992Z" fill="#111213" fill-opacity="0.1"/>
<path fill-rule="evenodd" clip-rule="evenodd" d="M54.4297 754.164L207.72 708.437L217.519 741.285L64.2283 787.012L54.4297 754.164Z" fill="#111213" fill-opacity="0.1"/>
<path fill-rule="evenodd" clip-rule="evenodd" d="M121.276 698.454C163.606 685.827 187.685 641.276 175.057 598.946C162.43 556.616 117.879 532.537 75.5486 545.164C33.2186 557.791 9.13967 602.343 21.7668 644.673C34.394 687.003 78.9456 711.082 121.276 698.454Z" fill="#111213" fill-opacity="0.1"/>
</g>
</g>
</g>
<defs>
<filter id="filter0_f_537_411" x="-86.0723" y="-605.898" width="1928.55" height="1997.2" filterUnits="userSpaceOnUse" color-interpolation-filters="sRGB">
<feFlood flood-opacity="0" result="BackgroundImageFix"/>
<feBlend mode="normal" in="SourceGraphic" in2="BackgroundImageFix" result="shape"/>
<feGaussianBlur stdDeviation="196.5" result="effect1_foregroundBlur_537_411"/>
</filter>
<filter id="filter1_d_537_411" x="16.8733" y="-904.028" width="1458.42" height="1936.46" filterUnits="userSpaceOnUse" color-interpolation-filters="sRGB">
<feFlood flood-opacity="0" result="BackgroundImageFix"/>
<feColorMatrix in="SourceAlpha" type="matrix" values="0 0 0 0 0 0 0 0 0 0 0 0 0 0 0 0 0 0 127 0" result="hardAlpha"/>
<feOffset dy="100.686"/>
<feGaussianBlur stdDeviation="115.788"/>
<feColorMatrix type="matrix" values="0 0 0 0 0 0 0 0 0 0 0 0 0 0 0 0 0 0 0.15 0"/>
<feBlend mode="normal" in2="BackgroundImageFix" result="effect1_dropShadow_537_411"/>
<feBlend mode="normal" in="SourceGraphic" in2="effect1_dropShadow_537_411" result="shape"/>
</filter>
<filter id="filter2_i_537_411" x="248.45" y="-773.137" width="995.265" height="1473.31" filterUnits="userSpaceOnUse" color-interpolation-filters="sRGB">
<feFlood flood-opacity="0" result="BackgroundImageFix"/>
<feBlend mode="normal" in="SourceGraphic" in2="BackgroundImageFix" result="shape"/>
<feColorMatrix in="SourceAlpha" type="matrix" values="0 0 0 0 0 0 0 0 0 0 0 0 0 0 0 0 0 0 127 0" result="hardAlpha"/>
<feOffset/>
<feGaussianBlur stdDeviation="8.05485"/>
<feComposite in2="hardAlpha" operator="arithmetic" k2="-1" k3="1"/>
<feColorMatrix type="matrix" values="0 0 0 0 1 0 0 0 0 1 0 0 0 0 1 0 0 0 1 0"/>
<feBlend mode="normal" in2="shape" result="effect1_innerShadow_537_411"/>
</filter>
<filter id="filter3_i_537_411" x="248.45" y="-773.137" width="995.265" height="1475.32" filterUnits="userSpaceOnUse" color-interpolation-filters="sRGB">
<feFlood flood-opacity="0" result="BackgroundImageFix"/>
<feBlend mode="normal" in="SourceGraphic" in2="BackgroundImageFix" result="shape"/>
<feColorMatrix in="SourceAlpha" type="matrix" values="0 0 0 0 0 0 0 0 0 0 0 0 0 0 0 0 0 0 127 0" result="hardAlpha"/>
<feOffset dy="2.01371"/>
<feGaussianBlur stdDeviation="3.02057"/>
<feComposite in2="hardAlpha" operator="arithmetic" k2="-1" k3="1"/>
<feColorMatrix type="matrix" values="0 0 0 0 1 0 0 0 0 1 0 0 0 0 1 0 0 0 0.5 0"/>
<feBlend mode="normal" in2="shape" result="effect1_innerShadow_537_411"/>
</filter>
<filter id="filter4_i_537_411" x="248.45" y="-773.137" width="995.265" height="1475.32" filterUnits="userSpaceOnUse" color-interpolation-filters="sRGB">
<feFlood flood-opacity="0" result="BackgroundImageFix"/>
<feBlend mode="normal" in="SourceGraphic" in2="BackgroundImageFix" result="shape"/>
<feColorMatrix in="SourceAlpha" type="matrix" values="0 0 0 0 0 0 0 0 0 0 0 0 0 0 0 0 0 0 127 0" result="hardAlpha"/>
<feOffset dy="2.01371"/>
<feGaussianBlur stdDeviation="3.02057"/>
<feComposite in2="hardAlpha" operator="arithmetic" k2="-1" k3="1"/>
<feColorMatrix type="matrix" values="0 0 0 0 1 0 0 0 0 1 0 0 0 0 1 0 0 0 0.5 0"/>
<feBlend mode="normal" in2="shape" result="effect1_innerShadow_537_411"/>
</filter>
<filter id="filter5_d_537_411" x="-522.406" y="122.136" width="1458.49" height="1936.47" filterUnits="userSpaceOnUse" color-interpolation-filters="sRGB">
<feFlood flood-opacity="0" result="BackgroundImageFix"/>
<feColorMatrix in="SourceAlpha" type="matrix" values="0 0 0 0 0 0 0 0 0 0 0 0 0 0 0 0 0 0 127 0" result="hardAlpha"/>
<feOffset dy="100.686"/>
<feGaussianBlur stdDeviation="115.788"/>
<feColorMatrix type="matrix" values="0 0 0 0 0 0 0 0 0 0 0 0 0 0 0 0 0 0 0.15 0"/>
<feBlend mode="normal" in2="BackgroundImageFix" result="effect1_dropShadow_537_411"/>
<feBlend mode="normal" in="SourceGraphic" in2="effect1_dropShadow_537_411" result="shape"/>
</filter>
<filter id="filter6_i_537_411" x="-290.829" y="253.027" width="995.336" height="1473.32" filterUnits="userSpaceOnUse" color-interpolation-filters="sRGB">
<feFlood flood-opacity="0" result="BackgroundImageFix"/>
<feBlend mode="normal" in="SourceGraphic" in2="BackgroundImageFix" result="shape"/>
<feColorMatrix in="SourceAlpha" type="matrix" values="0 0 0 0 0 0 0 0 0 0 0 0 0 0 0 0 0 0 127 0" result="hardAlpha"/>
<feOffset/>
<feGaussianBlur stdDeviation="8.05485"/>
<feComposite in2="hardAlpha" operator="arithmetic" k2="-1" k3="1"/>
<feColorMatrix type="matrix" values="0 0 0 0 1 0 0 0 0 1 0 0 0 0 1 0 0 0 1 0"/>
<feBlend mode="normal" in2="shape" result="effect1_innerShadow_537_411"/>
</filter>
<filter id="filter7_i_537_411" x="-290.829" y="253.027" width="995.336" height="1475.33" filterUnits="userSpaceOnUse" color-interpolation-filters="sRGB">
<feFlood flood-opacity="0" result="BackgroundImageFix"/>
<feBlend mode="normal" in="SourceGraphic" in2="BackgroundImageFix" result="shape"/>
<feColorMatrix in="SourceAlpha" type="matrix" values="0 0 0 0 0 0 0 0 0 0 0 0 0 0 0 0 0 0 127 0" result="hardAlpha"/>
<feOffset dy="2.01371"/>
<feGaussianBlur stdDeviation="3.02057"/>
<feComposite in2="hardAlpha" operator="arithmetic" k2="-1" k3="1"/>
<feColorMatrix type="matrix" values="0 0 0 0 1 0 0 0 0 1 0 0 0 0 1 0 0 0 0.5 0"/>
<feBlend mode="normal" in2="shape" result="effect1_innerShadow_537_411"/>
</filter>
<filter id="filter8_i_537_411" x="-290.829" y="253.027" width="995.336" height="1475.33" filterUnits="userSpaceOnUse" color-interpolation-filters="sRGB">
<feFlood flood-opacity="0" result="BackgroundImageFix"/>
<feBlend mode="normal" in="SourceGraphic" in2="BackgroundImageFix" result="shape"/>
<feColorMatrix in="SourceAlpha" type="matrix" values="0 0 0 0 0 0 0 0 0 0 0 0 0 0 0 0 0 0 127 0" result="hardAlpha"/>
<feOffset dy="2.01371"/>
<feGaussianBlur stdDeviation="3.02057"/>
<feComposite in2="hardAlpha" operator="arithmetic" k2="-1" k3="1"/>
<feColorMatrix type="matrix" values="0 0 0 0 1 0 0 0 0 1 0 0 0 0 1 0 0 0 0.5 0"/>
<feBlend mode="normal" in2="shape" result="effect1_innerShadow_537_411"/>
</filter>
<linearGradient id="paint0_linear_537_411" x1="1545.25" y1="719.435" x2="477.638" y2="922.057" gradientUnits="userSpaceOnUse">
<stop stop-color="#38D7CD"/>
<stop offset="1" stop-color="#29FB96"/>
</linearGradient>
<linearGradient id="paint1_linear_537_411" x1="856.59" y1="385.278" x2="933.043" y2="481.712" gradientUnits="userSpaceOnUse">
<stop stop-color="#38D7CD"/>
<stop offset="1" stop-color="#29FB96"/>
</linearGradient>
<clipPath id="clip0_537_411">
<rect width="1310" height="867" fill="white"/>
</clipPath>
</defs>
</svg>
