<svg fill="none" height="34" viewBox="0 0 145 34" width="145" xmlns="http://www.w3.org/2000/svg"><g fill="#111213"><g stroke="#111213" stroke-miterlimit="10" stroke-width=".2"><path d="m47.3262 4.21538c0 .99258-.2484 1.8611-.8695 2.48144-.7454.7444-1.6148 1.11663-2.7328 1.11663-1.1179 0-1.9875-.37223-2.7327-1.11663-.7453-.74447-1.118-1.61292-1.118-2.72955s.3727-1.98508 1.118-2.72955c.7452-.744392 1.6148-1.116626 2.7327-1.116626.4969 0 .9938.124054 1.4906.372234.4968.248108.8695.496288 1.1179.868452l-.6211.62034c-.4968-.62034-1.1179-.86845-1.9874-.86845-.7453 0-1.4906.24811-1.9875.86845-.621.49629-.8694 1.24076-.8694 2.10921 0 .86852.2484 1.61292.8694 2.1092.6211.49629 1.2422.86846 1.9875.86846.8695 0 1.4906-.24811 2.1117-.86846.3726-.37223.6211-.86852.6211-1.48886h-2.7328v-.86845h3.6023z"/><path d="m53.0407 1.11367h-3.3538v2.35732h3.1053v.86852h-3.1053v2.35731h3.3538v.86845h-4.3476v-7.444176h4.3476z"/><path d="m57.14 7.56527h-.9941v-6.575654h-2.1117v-.868522h5.2169v.868522h-2.1111z"/><path d="m62.8536 7.56527v-7.444176h.9932v7.444176z"/><path d="m68.0706 7.56527h-.9932v-6.575654h-2.1118v-.868522h5.0928v.868522h-2.1119v6.575654z"/><path d="m79.8709 6.69682c-.7451.7444-1.6149 1.11663-2.7328 1.11663-1.118 0-1.9871-.37223-2.7329-1.11663-.745-.74447-1.1179-1.61292-1.1179-2.72955s.3729-1.98508 1.1179-2.72955c.7458-.744392 1.6149-1.116626 2.7329-1.116626 1.1179 0 1.9877.372234 2.7328 1.116626.7451.74447 1.1179 1.61292 1.1179 2.72955 0 .99258-.3728 1.98508-1.1179 2.72955zm-4.7199-.62034c.497.49629 1.242.86845 1.9871.86845.7457 0 1.4908-.24811 1.9877-.86845.497-.49629.8692-1.24068.8692-2.10921 0-.86852-.2482-1.61292-.8692-2.1092-.4969-.49629-1.242-.868454-1.9877-.868454-.7451 0-1.4901.248104-1.9871.868454-.4969.49628-.8698 1.24068-.8698 2.1092 0 .7444.2488 1.48887.8698 2.10921z"/><path d="m82.3557 7.56527v-7.444176h1.1179l3.602 5.831256v-1.48879-4.342466h.9939v7.444176h-.9939l-3.8508-6.07937v1.4888 4.59057z"/></g><path d="m73.0385 18.4875c-2.981 0-5.3409 2.2333-5.3409 5.3351 0 2.9776 2.3599 5.3349 5.3409 5.3349 2.9809 0 5.3416-2.2332 5.3416-5.3349 0-3.1018-2.3607-5.3351-5.3416-5.3351zm0 8.4368c-1.6149 0-2.981-1.3648-2.981-3.2258 0-1.8611 1.3661-3.2258 2.981-3.2258s2.9809 1.2406 2.9809 3.2258c0 1.9851-1.366 3.2258-2.9809 3.2258zm-11.5523-8.4368c-2.981 0-5.341 2.2333-5.341 5.3351 0 2.9776 2.36 5.3349 5.341 5.3349 2.9816 0 5.3416-2.2332 5.3416-5.3349 0-3.1018-2.36-5.3351-5.3416-5.3351zm0 8.4368c-1.6142 0-2.981-1.3648-2.981-3.2258 0-1.8611 1.3668-3.2258 2.981-3.2258 1.6148 0 2.9816 1.2406 2.9816 3.2258 0 1.9851-1.3668 3.2258-2.9816 3.2258zm-13.7877-6.8239v2.2333h5.3413c-.1242 1.2407-.6211 2.2332-1.2422 2.8536-.7452.7444-1.9875 1.6129-4.0991 1.6129-3.3538 0-5.8382-2.6055-5.8382-5.9553 0-3.3499 2.6086-5.9554 5.8382-5.9554 1.739 0 3.1054.7444 4.0991 1.6129l1.6148-1.6129c-1.3664-1.2407-3.1054-2.2333-5.5897-2.2333-4.4718 0-8.3225 3.7222-8.3225 8.1887 0 4.4664 3.8507 8.1886 8.3225 8.1886 2.4843 0 4.2233-.7444 5.7139-2.3573 1.4907-1.4889 1.9875-3.5981 1.9875-5.211 0-.4962 0-.9925-.1242-1.3648zm56.3945 1.737c-.497-1.2407-1.74-3.3499-4.472-3.3499-2.7328 0-4.9687 2.1092-4.9687 5.3351 0 2.9776 2.2359 5.3349 5.2168 5.3349 2.3599 0 3.8509-1.4888 4.3479-2.3573l-1.739-1.2407c-.621.8685-1.367 1.4888-2.6089 1.4888-1.242 0-1.9877-.4962-2.6087-1.6128l7.0806-2.9778zm-7.2048 1.737c0-1.9851 1.6149-3.1017 2.7328-3.1017.869 0 1.739.4962 1.987 1.1166zm-5.8386 5.0868h2.36v-15.5087h-2.36zm-3.726-9.0571c-.6217-.6203-1.6148-1.2406-2.8576-1.2406-2.608 0-5.0927 2.3573-5.0927 5.335s2.3606 5.2109 5.0927 5.2109c1.2428 0 2.2359-.6203 2.7329-1.2407h.1247v.7444c0 1.9851-1.1179 3.1017-2.8576 3.1017-1.366 0-2.3599-.9925-2.608-1.861l-1.9878.8685c.621 1.3648 2.1118 3.1017 4.7206 3.1017 2.7328 0 4.9687-1.6129 4.9687-5.459v-9.4293h-2.2359zm-2.7328 7.3202c-1.6149 0-2.9817-1.3648-2.9817-3.2258 0-1.8611 1.3668-3.2258 2.9817-3.2258s2.8569 1.3647 2.8569 3.2258c0 1.861-1.242 3.2258-2.8569 3.2258zm30.3082-13.7718h-5.589v15.5087h2.36v-5.8312h3.229c2.608 0 5.093-1.8611 5.093-4.8387 0-2.9777-2.485-4.8388-5.093-4.8388zm.124 7.5683h-3.353v-5.335h3.353c1.739 0 2.733 1.4889 2.733 2.6055-.124 1.2407-1.118 2.7295-2.733 2.7295zm14.286-2.2333c-1.74 0-3.479.7445-4.1 2.3574l2.112.8684c.497-.8684 1.242-1.1166 2.112-1.1166 1.242 0 2.36.7445 2.484 1.9852v.124c-.373-.2482-1.366-.6203-2.36-.6203-2.236 0-4.472 1.2407-4.472 3.4739 0 2.1092 1.863 3.474 3.851 3.474 1.615 0 2.36-.7444 2.981-1.4888h.124v1.2407h2.236v-5.9554c-.249-2.8536-2.36-4.3425-4.968-4.3425zm-.249 8.4368c-.745 0-1.863-.3722-1.863-1.3648 0-1.2407 1.366-1.6129 2.484-1.6129.994 0 1.491.2482 2.112.4963-.249 1.4889-1.491 2.4814-2.733 2.4814zm13.042-8.1886-2.608 6.6998h-.124l-2.733-6.6998h-2.485l4.1 9.4293-2.361 5.2109h2.361l6.335-14.6402zm-20.868 9.9255h2.36v-15.5087h-2.36z"/><path d="m.745272 31.7598c-.496872-.2481-.745272-.8685-.745272-1.4888 0-.1241 0-.3722 0-.4963 0-9.1812 0-18.3624 0-27.41947 0-.49629.1242-.86845.2484-1.36474.124272-.24818.372672-.496288.621144-.744396 5.341246 5.334976 10.558256 10.669906 15.775356 16.005006-5.3413 4.9627-10.55831 10.1737-15.899628 15.5087z"/><path d="m21.8617 10.7941c-1.4906 1.4888-3.1054 2.9776-4.596 4.5905-4.9686-5.0868-10.06146-10.17368-15.0301-15.260546 0 0 0-.124054.1242-.124054 6.45926 3.598 12.9184 7.19607 19.5019 10.7941z"/><path d="m2.2356 31.7595c4.96864-4.9629 10.0615-9.9256 15.0301-14.8884 1.3664 1.3647 2.857 2.7295 4.4718 4.2183-6.4593 3.5981-12.91844 7.1961-19.3777 10.6701z"/><path d="m22.6074 20.5982c-1.6148-1.4888-3.1053-2.9777-4.7201-4.4665 1.6148-1.6129 3.2296-3.2258 4.8443-4.8387.4969.2481.9938.4963 1.4907.8684 1.2421.7445 2.6085 1.3648 3.8507 2.1092.3726.1241.621.3723.8694.7444.4969.6204.4969 1.2408 0 1.8611-.2484.2481-.4968.4963-.8694.6204-1.7391 1.1166-3.6023 2.1092-5.4656 3.1017z"/></g></svg>