<svg fill="none" height="126" viewBox="0 0 126 126" width="126" xmlns="http://www.w3.org/2000/svg" xmlns:xlink="http://www.w3.org/1999/xlink"><linearGradient id="a" gradientUnits="userSpaceOnUse" x1="13" x2="107.449" y1="-.000004" y2="112.506"><stop offset="0" stop-color="#f6d365"/><stop offset="1" stop-color="#ff7952"/></linearGradient><rect fill="url(#a)" height="126" rx="37" width="126"/><g fill="#fff"><path d="m40.7882 70.5351h2.7205l3.002-8.6073 2.9551 8.6073h2.744l4.3858-12.7585h-3.2366l-2.6736 8.021-2.8144-8.021h-2.7205l-2.8379 8.0444-2.6736-8.0444h-3.2365z"/><path d="m64.1016 70.8165c1.2978 0 2.4313-.2892 3.4007-.8677.9851-.5942 1.673-1.3447 2.0639-2.2515l-2.486-1.2196c-.2815.4847-.6723.8834-1.1727 1.1961-.4847.2971-1.0788.4456-1.7824.4456-.9225 0-1.6965-.2814-2.3219-.8443s-.985-1.3134-1.0788-2.2515h9.1936c.0625-.172.1016-.3674.1173-.5863.0312-.2345.0469-.4691.0469-.7036 0-1.1414-.2424-2.1811-.7271-3.1193-.4847-.9381-1.1883-1.6886-2.1108-2.2515-.9224-.5785-2.0482-.8677-3.3772-.8677-1.1883 0-2.2671.2892-3.2365.8677-.9538.5785-1.7121 1.3681-2.275 2.3688-.5472.985-.8208 2.1186-.8208 3.4007 0 1.2352.2736 2.3609.8208 3.3772.5473 1.0163 1.3134 1.8216 2.2984 2.4157.9851.5941 2.1343.8912 3.4476.8912zm-.2345-10.7884c.813 0 1.4854.2502 2.017.7505.5472.4847.8521 1.1179.9146 1.8997h-6.0039c.1719-.8443.5316-1.4932 1.0788-1.9466.5629-.4691 1.2274-.7036 1.9935-.7036z"/><path d="m72.4112 70.5351h3.0723v-17.4726h-3.0723z"/><path d="m78.3202 56.346h3.0724v-3.2835h-3.0724zm0 14.1891h3.0724v-12.7585h-3.0724z"/><path d="m84.2293 70.5351h3.0724v-3.8932l1.6417-1.7825 3.5883 5.6757h3.518l-4.8079-7.6223 4.714-5.1362h-3.8228l-4.8313 5.0659v-9.8503h-3.0724z"/><path d="m103.587 70.8165c1.298 0 2.431-.2892 3.401-.8677.985-.5942 1.673-1.3447 2.064-2.2515l-2.486-1.2196c-.282.4847-.673.8834-1.173 1.1961-.485.2971-1.079.4456-1.782.4456-.923 0-1.697-.2814-2.322-.8443-.626-.5629-.985-1.3134-1.079-2.2515h9.193c.063-.172.102-.3674.118-.5863.031-.2345.047-.4691.047-.7036 0-1.1414-.243-2.1811-.727-3.1193-.485-.9381-1.189-1.6886-2.111-2.2515-.923-.5785-2.048-.8677-3.377-.8677-1.189 0-2.268.2892-3.237.8677-.9537.5785-1.7121 1.3681-2.2749 2.3688-.5473.985-.8209 2.1186-.8209 3.4007 0 1.2352.2736 2.3609.8209 3.3772.5472 1.0163 1.3133 1.8216 2.2979 2.4157.985.5941 2.135.8912 3.448.8912zm-.234-10.7884c.813 0 1.485.2502 2.016.7505.548.4847.853 1.1179.915 1.8997h-6.004c.172-.8443.532-1.4932 1.079-1.9466.563-.4691 1.227-.7036 1.994-.7036z"/><path d="m23.8515 49c7.4245 2.4444 11.4615 10.4442 9.0171 17.8687-2.4443 7.4245-10.4441 11.4615-17.8686 9.0172l.8851-2.6886c5.9418 1.9562 12.3432-1.2854 14.295-7.2137 1.9561-5.9418-1.272-12.3388-7.2138-14.295zm-1.7703 5.3772c4.4674 1.4559 6.8931 6.2626 5.4281 10.7122-1.4514 4.454-6.2581 6.8796-10.7077 5.4147l.8851-2.6886c2.9709.9781 6.1738-.6494 7.1475-3.6068.9781-2.9709-.636-6.1694-3.6069-7.1475l.8852-2.6886zm-1.7703 5.3772c1.4966.4778 2.3081 2.086 1.8213 3.5647-.4734 1.4831-2.0816 2.2947-3.5603 1.8079l1.7703-5.3772z"/></g></svg>