<svg width="136" height="40" viewBox="0 0 136 40" fill="none" xmlns="http://www.w3.org/2000/svg">
<path d="M36.9322 30.8421H40.8284L45.1275 18.5156L49.3596 30.8421H53.2893L59.5701 12.5706H54.9351L51.1061 24.0575L47.0756 12.5706H43.1795L39.1154 24.0911L35.2864 12.5706H30.6514L36.9322 30.8421Z" fill="#111213"/>
<path d="M70.3197 31.2452C72.1782 31.2452 73.8016 30.8309 75.1898 30.0024C76.6005 29.1516 77.5858 28.0768 78.1455 26.7781L74.5853 25.0315C74.1822 25.7257 73.6224 26.2966 72.9059 26.7445C72.2118 27.1699 71.3609 27.3826 70.3533 27.3826C69.0322 27.3826 67.9238 26.9796 67.0281 26.1735C66.1324 25.3674 65.6174 24.2926 65.4831 22.9491H78.6494C78.7389 22.7028 78.7949 22.4229 78.8173 22.1094C78.8621 21.7735 78.8845 21.4377 78.8845 21.1018C78.8845 19.4672 78.5374 17.9782 77.8433 16.6347C77.1491 15.2912 76.1415 14.2164 74.8204 13.4103C73.4993 12.5818 71.8871 12.1675 69.9838 12.1675C68.282 12.1675 66.737 12.5818 65.3487 13.4103C63.9828 14.2388 62.8969 15.3695 62.0908 16.8026C61.3071 18.2133 60.9152 19.8367 60.9152 21.6728C60.9152 23.4417 61.3071 25.0539 62.0908 26.5094C62.8745 27.9648 63.9717 29.118 65.3823 29.9689C66.793 30.8197 68.4388 31.2452 70.3197 31.2452ZM69.9838 15.795C71.1482 15.795 72.111 16.1532 72.8723 16.8698C73.656 17.5639 74.0927 18.4708 74.1822 19.5904H65.5838C65.8302 18.3812 66.3452 17.452 67.1289 16.8026C67.935 16.1308 68.8866 15.795 69.9838 15.795Z" fill="#111213"/>
<path d="M82.2199 30.8421H86.6198V5.81951H82.2199V30.8421Z" fill="#111213"/>
<path d="M90.6823 10.5217H95.0823V5.81951H90.6823V10.5217ZM90.6823 30.8421H95.0823V12.5706H90.6823V30.8421Z" fill="#111213"/>
<path d="M99.1448 30.8421H103.545V25.2666L105.896 22.714L111.035 30.8421H116.073L109.187 19.9262L115.938 12.5706H110.464L103.545 19.8255V5.71875H99.1448V30.8421Z" fill="#111213"/>
<path d="M126.867 31.2452C128.726 31.2452 130.349 30.8309 131.737 30.0024C133.148 29.1516 134.133 28.0768 134.693 26.7781L131.133 25.0315C130.73 25.7257 130.17 26.2966 129.453 26.7445C128.759 27.1699 127.908 27.3826 126.901 27.3826C125.58 27.3826 124.471 26.9796 123.576 26.1735C122.68 25.3674 122.165 24.2926 122.031 22.9491H135.197C135.286 22.7028 135.342 22.4229 135.365 22.1094C135.41 21.7735 135.432 21.4377 135.432 21.1018C135.432 19.4672 135.085 17.9782 134.391 16.6347C133.697 15.2912 132.689 14.2164 131.368 13.4103C130.047 12.5818 128.435 12.1675 126.531 12.1675C124.83 12.1675 123.285 12.5818 121.896 13.4103C120.53 14.2388 119.444 15.3695 118.638 16.8026C117.855 18.2133 117.463 19.8367 117.463 21.6728C117.463 23.4417 117.855 25.0539 118.638 26.5094C119.422 27.9648 120.519 29.118 121.93 29.9689C123.341 30.8197 124.986 31.2452 126.867 31.2452ZM126.531 15.795C127.696 15.795 128.659 16.1532 129.42 16.8698C130.204 17.5639 130.64 18.4708 130.73 19.5904H122.131C122.378 18.3812 122.893 17.452 123.676 16.8026C124.483 16.1308 125.434 15.795 126.531 15.795Z" fill="#111213"/>
<path d="M12.6763 0C23.3091 3.50056 29.0905 14.9572 25.5899 25.5899C22.0894 36.2227 10.6327 42.0041 0 38.5035L1.26763 34.6532C9.77691 37.4546 18.9444 32.8123 21.7396 24.3223C24.541 15.813 19.918 6.65182 11.4087 3.85035L12.6763 0ZM10.141 7.70071C16.539 9.78572 20.0127 16.6694 17.9148 23.0417C15.8361 29.4204 8.95244 32.8942 2.5801 30.7962L3.84773 26.9459C8.10237 28.3466 12.6893 26.0158 14.0837 21.7805C15.4844 17.5258 13.1729 12.9452 8.91825 11.5445L10.1859 7.69413L10.141 7.70071ZM7.60578 15.4014C9.74907 16.0857 10.9113 18.3888 10.2141 20.5065C9.53615 22.6305 7.23306 23.7927 5.11536 23.0955L7.65062 15.3948L7.60578 15.4014Z" fill="#111213"/>
</svg>
