<svg width="939" height="225" viewBox="0 0 939 225" fill="none" xmlns="http://www.w3.org/2000/svg">
<circle cx="112.5" cy="112.5" r="112.5" fill="url(#paint0_linear_1_34)"/>
<path d="M175 50V94H155C150.6 73.6 129.5 65.5 115.667 65.5C90.2011 64.7 75.6115 82.1667 71.5 91C62.3 109.8 67.6667 126.5 71.5 132.5C80.3 151.3 100.234 158 109.101 159C135.181 160.6 150.567 142 155 132.5H175V175H50V50H175Z" fill="white"/>
<path d="M309.4 166.5V85.98H284.452V68.16H354.412V85.98H329.86V166.5H309.4ZM388.527 168.084C380.871 168.084 374.227 166.412 368.595 163.068C362.963 159.636 358.607 155.06 355.527 149.34C352.447 143.62 350.907 137.284 350.907 130.332C350.907 123.116 352.491 116.692 355.659 111.06C358.915 105.428 363.271 100.984 368.727 97.728C374.183 94.472 380.343 92.844 387.207 92.844C392.927 92.844 397.987 93.768 402.387 95.616C406.787 97.376 410.483 99.884 413.475 103.14C416.555 106.396 418.887 110.18 420.471 114.492C422.055 118.716 422.847 123.336 422.847 128.352C422.847 129.76 422.759 131.168 422.583 132.576C422.495 133.896 422.275 135.04 421.923 136.008H367.935V121.488H410.703L401.331 128.352C402.211 124.568 402.167 121.224 401.199 118.32C400.231 115.328 398.515 112.996 396.051 111.324C393.675 109.564 390.727 108.684 387.207 108.684C383.775 108.684 380.827 109.52 378.363 111.192C375.899 112.864 374.051 115.328 372.819 118.584C371.587 121.84 371.103 125.8 371.367 130.464C371.015 134.512 371.499 138.076 372.819 141.156C374.139 144.236 376.163 146.656 378.891 148.416C381.619 150.088 384.919 150.924 388.791 150.924C392.311 150.924 395.303 150.22 397.767 148.812C400.319 147.404 402.299 145.468 403.707 143.004L419.547 150.528C418.139 154.048 415.895 157.128 412.815 159.768C409.823 162.408 406.259 164.476 402.123 165.972C397.987 167.38 393.455 168.084 388.527 168.084ZM427.541 166.5L452.753 130.332L427.409 94.428H450.377L469.385 122.412H459.353L478.361 94.428H501.329L475.985 130.332L501.065 166.5H478.229L459.617 138.516H469.121L450.509 166.5H427.541ZM544.761 167.292C536.049 167.292 529.273 164.96 524.433 160.296C519.681 155.544 517.305 148.944 517.305 140.496V111.588H505.161V94.428H505.821C509.517 94.428 512.333 93.504 514.269 91.656C516.293 89.808 517.305 87.036 517.305 83.34V78.06H537.105V94.428H554.001V111.588H537.105V139.176C537.105 141.64 537.545 143.708 538.425 145.38C539.305 146.964 540.669 148.152 542.517 148.944C544.365 149.736 546.653 150.132 549.381 150.132C549.997 150.132 550.701 150.088 551.493 150C552.285 149.912 553.121 149.824 554.001 149.736V166.5C552.681 166.676 551.185 166.852 549.513 167.028C547.841 167.204 546.257 167.292 544.761 167.292ZM563.888 166.5V150.66L590.288 123.468C595.48 118.1 599.396 113.876 602.036 110.796C604.764 107.628 606.612 104.988 607.58 102.876C608.636 100.764 609.164 98.696 609.164 96.672C609.164 93.064 607.976 90.248 605.6 88.224C603.312 86.112 600.408 85.056 596.888 85.056C593.28 85.056 590.068 86.112 587.252 88.224C584.436 90.248 582.368 93.372 581.048 97.596L563.228 91.788C564.284 86.684 566.484 82.24 569.828 78.456C573.172 74.672 577.22 71.768 581.972 69.744C586.724 67.632 591.696 66.576 596.888 66.576C603.4 66.576 609.12 67.72 614.048 70.008C618.976 72.296 622.804 75.508 625.532 79.644C628.26 83.78 629.624 88.62 629.624 94.164C629.624 97.684 629.008 101.16 627.776 104.592C626.544 107.936 624.652 111.368 622.1 114.888C619.636 118.32 616.424 122.06 612.464 126.108L589.892 149.34H630.548V166.5H563.888ZM692.417 168.084C685.377 168.084 678.821 166.808 672.749 164.256C666.765 161.704 661.529 158.14 657.041 153.564C652.553 148.988 649.033 143.62 646.481 137.46C644.017 131.3 642.785 124.568 642.785 117.264C642.785 109.96 644.017 103.228 646.481 97.068C648.945 90.82 652.421 85.452 656.909 80.964C661.397 76.388 666.633 72.868 672.617 70.404C678.689 67.852 685.289 66.576 692.417 66.576C699.545 66.576 705.925 67.764 711.557 70.14C717.277 72.516 722.117 75.684 726.077 79.644C730.037 83.604 732.853 88.004 734.525 92.844L716.441 101.556C714.769 96.804 711.821 92.888 707.597 89.808C703.461 86.64 698.401 85.056 692.417 85.056C686.609 85.056 681.505 86.42 677.105 89.148C672.705 91.876 669.273 95.66 666.809 100.5C664.433 105.252 663.245 110.84 663.245 117.264C663.245 123.688 664.433 129.32 666.809 134.16C669.273 139 672.705 142.784 677.105 145.512C681.505 148.24 686.609 149.604 692.417 149.604C698.401 149.604 703.461 148.064 707.597 144.984C711.821 141.816 714.769 137.856 716.441 133.104L734.525 141.816C732.853 146.656 730.037 151.056 726.077 155.016C722.117 158.976 717.277 162.144 711.557 164.52C705.925 166.896 699.545 168.084 692.417 168.084ZM779.628 168.084C771.972 168.084 765.328 166.412 759.696 163.068C754.064 159.636 749.708 155.06 746.628 149.34C743.548 143.62 742.008 137.284 742.008 130.332C742.008 123.116 743.592 116.692 746.76 111.06C750.016 105.428 754.372 100.984 759.828 97.728C765.284 94.472 771.444 92.844 778.308 92.844C784.028 92.844 789.088 93.768 793.488 95.616C797.888 97.376 801.584 99.884 804.576 103.14C807.656 106.396 809.988 110.18 811.572 114.492C813.156 118.716 813.948 123.336 813.948 128.352C813.948 129.76 813.86 131.168 813.684 132.576C813.596 133.896 813.376 135.04 813.024 136.008H759.036V121.488H801.804L792.432 128.352C793.312 124.568 793.268 121.224 792.3 118.32C791.332 115.328 789.616 112.996 787.152 111.324C784.776 109.564 781.828 108.684 778.308 108.684C774.876 108.684 771.928 109.52 769.464 111.192C767 112.864 765.152 115.328 763.92 118.584C762.688 121.84 762.204 125.8 762.468 130.464C762.116 134.512 762.6 138.076 763.92 141.156C765.24 144.236 767.264 146.656 769.992 148.416C772.72 150.088 776.02 150.924 779.892 150.924C783.412 150.924 786.404 150.22 788.868 148.812C791.42 147.404 793.4 145.468 794.808 143.004L810.648 150.528C809.24 154.048 806.996 157.128 803.916 159.768C800.924 162.408 797.36 164.476 793.224 165.972C789.088 167.38 784.556 168.084 779.628 168.084ZM825.608 166.5V66.576H845.408V166.5H825.608ZM895.669 168.084C888.541 168.084 882.029 166.456 876.133 163.2C870.325 159.944 865.661 155.5 862.141 149.868C858.709 144.148 856.993 137.68 856.993 130.464C856.993 123.16 858.709 116.692 862.141 111.06C865.661 105.428 870.325 100.984 876.133 97.728C882.029 94.472 888.541 92.844 895.669 92.844C902.797 92.844 909.265 94.472 915.073 97.728C920.881 100.984 925.501 105.428 928.933 111.06C932.453 116.692 934.213 123.16 934.213 130.464C934.213 137.68 932.453 144.148 928.933 149.868C925.501 155.5 920.881 159.944 915.073 163.2C909.265 166.456 902.797 168.084 895.669 168.084ZM895.669 150.264C899.277 150.264 902.401 149.428 905.041 147.756C907.769 146.084 909.881 143.752 911.377 140.76C912.961 137.768 913.753 134.336 913.753 130.464C913.753 126.592 912.961 123.204 911.377 120.3C909.881 117.308 907.769 114.976 905.041 113.304C902.401 111.544 899.277 110.664 895.669 110.664C892.061 110.664 888.893 111.544 886.165 113.304C883.437 114.976 881.281 117.308 879.697 120.3C878.201 123.204 877.453 126.592 877.453 130.464C877.453 134.336 878.201 137.768 879.697 140.76C881.281 143.752 883.437 146.084 886.165 147.756C888.893 149.428 892.061 150.264 895.669 150.264Z" fill="black"/>
<defs>
<linearGradient id="paint0_linear_1_34" x1="112.5" y1="0" x2="112.5" y2="225" gradientUnits="userSpaceOnUse">
<stop stop-color="#F8C362"/>
<stop offset="1" stop-color="#FE8354"/>
</linearGradient>
</defs>
</svg>
